<?xml version="1.0"?>
<svg xmlns="http://www.w3.org/2000/svg" viewBox="0 0 512 512">
   <path
      d="m475.429 124.113c20.984 39.769 36.571 83.645 36.571 131.887 0 141.385-114.615 256-256 256s-256-114.615-256-256 114.615-256 256-256c49.118 0 96.997 15.031 135.97 39.014 0 0 60.43 41.452 83.459 85.099z"
      fill="#f7b84f"
   />
   <path
      d="m512 256c0-48.242-15.587-92.118-36.57-131.887-23.03-43.647-83.46-85.099-83.46-85.099-38.973-23.983-86.852-39.014-135.97-39.014v512c141.385 0 256-114.615 256-256z"
      fill="#f7b84f"
   />
   <path
      d="m404.654 182.222c10.922 23.293 17.257 46.275 17.257 73.778 0 91.63-74.281 165.912-165.912 165.912s-165.911-74.282-165.911-165.912 74.282-165.912 165.912-165.912c28.943 0 53.868 6.169 77.555 19.197 0 .001 50.4 28.793 71.099 72.937z"
      fill="#fff4f4"
   />
   <circle cx="256" cy="256" fill="#f7b84f" r="78.098" />
</svg>
